<svg id="Layer_1" data-name="Layer 1" xmlns="http://www.w3.org/2000/svg" viewBox="0 0 648 140.3418" fill="white">
  <g>
    <path id="fullLogo" d="M269.4152,103.6466H258.2958V48.5461H252.18V38.2608h6.1162V25.1586c0-5.42,0-12.2323,2.9187-16.9569C264.8281,2.3642,271.3614,0,278.0331,0a26.4525,26.4525,0,0,1,7.922,1.39v11.26a22.5664,22.5664,0,0,0-7.5049-1.53c-9.035,0-9.035,6.3948-9.035,17.9314v9.21h16.54V48.5461h-16.54Z"/>
    <path id="fullLogo-2" data-name="fullLogo" d="M11.12,47.6321h.2777a27.5332,27.5332,0,0,1,22.5177-11.12c19.1809,0,31.2729,16.54,31.2729,34.61,0,18.6253-11.8143,34.331-31.4123,34.331A27.5242,27.5242,0,0,1,11.3972,94.4742H11.12v45.8676H0V38.3194H11.12ZM10.563,70.2882c0,12.7878,7.5059,24.88,21.4057,24.88,14.316,0,21.8219-11.5366,21.8219-24.74,0-13.0665-8.2007-23.63-21.9612-23.63C18.9031,46.7979,10.563,58.0577,10.563,70.2882Z"/>
    <path id="fullLogo-3" data-name="fullLogo" d="M91.3237,45.4082h.2778c3.8922-5.1417,7.2281-8.8956,14.4553-8.8956,3.7529,0,6.811,1.2513,10.0075,3.0581l-5.282,10.1469c-2.2239-1.5281-3.752-2.92-6.6717-2.92-12.2305,0-12.7869,15.7075-12.7869,24.186v32.6627h-11.12V38.3194h11.12Z"/>
    <path id="fullLogo-4" data-name="fullLogo" d="M447.2809,100.37c0,10.4237,0,19.46-6.6717,28.0765-6.1162,7.7827-15.5673,11.5365-25.297,11.5365-18.2083,0-31.691-11.5365-32.1081-30.0235h11.12c.1393,12.094,8.8955,19.7383,20.8492,19.7383,17.2357,0,20.9886-12.6495,20.9886-27.3826V94.5321h-.2787a28.9438,28.9438,0,0,1-22.656,10.8408c-19.0416,0-31.1346-15.9844-31.1346-34.1926,0-18.3467,12.2315-34.7482,31.5517-34.7482a27.2012,27.2012,0,0,1,22.2389,11.12h.2787V38.2389h11.1195ZM393.49,70.2077c0,12.7878,7.505,24.88,21.4048,24.88,14.316,0,21.8218-11.5366,21.8218-24.7415,0-13.0647-8.2007-23.6287-21.9612-23.6287C401.8294,46.7174,393.49,57.9772,393.49,70.2077Z"/>
    <path id="fullLogo-5" data-name="fullLogo" d="M471.7475,73.2658c.1384,12.092,8.7562,21.8218,21.4047,21.8218,9.4511,0,15.5673-5.6991,19.8757-13.4818l9.4521,5.42c-6.2546,11.675-16.8186,18.3467-30.162,18.3467-19.4595,0-31.9687-14.8715-31.9687-33.6371,0-19.3193,11.2588-35.3037,31.691-35.3037,20.9876,0,32.1071,17.3741,30.9952,36.8337Zm39.613-9.4511c-1.5291-9.453-9.452-17.0973-19.1818-17.0973-9.59,0-18.486,7.6443-19.8757,17.0973Z"/>
    <path id="fullLogo-6" data-name="fullLogo" d="M548.7552,103.5661H537.6357V36.1375h11.1195Z"/>
    <path id="fullLogo-7" data-name="fullLogo" d="M595.5973,53.3891c-1.5291-3.4752-4.8649-6.6717-8.8956-6.6717-3.8914,0-8.0614,3.0581-8.0614,7.2272,0,5.9778,7.5059,8.2017,15.15,11.3982s15.15,7.7845,15.15,18.7638c0,12.3707-10.0075,21.2663-22.1,21.2663-10.98,0-19.598-6.2546-23.0731-16.54l9.8691-4.1691c2.7794,6.1144,5.9759,10.4237,13.3433,10.4237,5.976,0,10.5631-4.0307,10.5631-10.0084,0-14.5928-29.4671-9.59-29.4671-30.16,0-10.9811,8.8956-18.487,19.46-18.487,7.5058,0,14.4553,5.282,17.374,12.0921Z"/>
    <path id="fullLogo-8" data-name="fullLogo" d="M636.325,103.5661h-11.12V48.5242h-6.811V38.2389h6.811V14.7505h11.12V38.2389H648V48.5242H636.325Z"/>
    <polygon id="fullLogo-9" data-name="fullLogo" points="363.478 75.411 335.324 75.411 335.324 103.566 324.204 103.566 324.204 75.411 296.05 75.411 296.05 64.292 324.204 64.292 324.204 36.137 335.324 36.137 335.324 64.292 363.478 64.292 363.478 75.411"/>
    <path id="fullLogo-10" data-name="fullLogo" d="M208.1945,36.2536a33.3876,33.3876,0,0,0-26.7828,12.8093c-6.7037,8.8183-6.6251,13.6888-7.7482,21.8237-1.8293,13.25-10.478,22.1474-22.3339,22.1474a22.297,22.297,0,1,1,0-44.594,21.6756,21.6756,0,0,1,16.9142,7.8572A42.4889,42.4889,0,0,1,174.3,45.1319,34.9655,34.9655,0,0,0,151.33,36.2536a34.4834,34.4834,0,1,0,0,68.9667c10.0707,0,19.9508-4.8951,26.7439-12.7626,4.9615-5.7462,6.716-12.2141,7.6564-20.0614,1.7146-14.3085,9.7171-23.8634,22.4646-23.9563a22.297,22.297,0,1,1,0,44.594,22.4906,22.4906,0,0,1-16.877-7.8369,44.6116,44.6116,0,0,1-6.0512,11.1507s9.238,8.9816,22.9282,8.8725a34.4834,34.4834,0,1,0,0-68.9667Z"/>
  </g>
</svg>
